<?xml version="1.0" encoding="UTF-8"?>
<svg width="90px" height="21px" viewBox="0 0 90 21" version="1.1" xmlns="http://www.w3.org/2000/svg" xmlns:xlink="http://www.w3.org/1999/xlink">
    <!-- Generator: Sketch 53 (72520) - https://sketchapp.com -->
    <title>kindnest logo copy</title>
    <desc>Created with Sketch.</desc>
    <g id="Symbols" stroke="none" stroke-width="1" fill="none" fill-rule="evenodd">
        <g id="Branding-/-kindnest-app-heading-white" fill="#FFFFFF">
            <path d="M7.99751622,10.9106763 L12.443593,19.8570504 L9.27169677,19.8570504 L5.85580848,12.9981636 L2.90079402,16.3327212 L2.90079402,19.8570504 L0,19.8570504 L0,1.77453066 L2.90079402,1.77453066 L2.90079402,12.9981636 C3.08152975,12.7632071 3.20352454,12.6050657 3.26678205,12.5237347 C3.33003955,12.4424036 3.40685109,12.3475187 3.49721896,12.2390773 L8.7566025,6.49170971 L12.0098294,6.49170971 L7.99751622,10.9106763 Z M13.2607047,4.9193167 L13.2607047,1.77453066 L16.2699396,1.77453066 L16.2699396,4.9193167 L13.2607047,4.9193167 Z M13.2607047,19.8570504 L13.2607047,6.46459949 L16.2699396,6.46459949 L16.2699396,19.8570504 L13.2607047,19.8570504 Z M18.7136648,6.49170971 L21.4517974,6.49170971 L21.4517974,9.5822753 C21.5783125,9.3111717 21.7454905,8.98133394 21.9533366,8.59275211 C22.1611827,8.20417028 22.4232456,7.83366759 22.7395331,7.48123291 C23.0558206,7.12879823 23.43536,6.83058874 23.8781625,6.5865955 C24.3209651,6.34260226 24.8586458,6.22060747 25.4912209,6.22060747 C26.2141638,6.22060747 26.8196194,6.32001063 27.3076059,6.51881994 C27.7955924,6.71762925 28.1977234,6.97969213 28.5140109,7.30501645 C28.8302984,7.63034077 29.074288,8.00084346 29.245987,8.41653565 C29.4176859,8.83222784 29.5396807,9.25243212 29.611975,9.67716109 C29.6842693,10.1018901 29.7249342,10.5130577 29.733971,10.9106763 C29.7430078,11.3082949 29.7475261,11.6516877 29.7475261,11.9408648 L29.7475261,19.8570504 L26.7382912,19.8570504 L26.7382912,11.9950853 C26.7382912,11.2179216 26.6569614,10.6169843 26.4942992,10.1922554 C26.331637,9.76752638 26.137349,9.45576192 25.9114294,9.25695261 C25.6855097,9.0581433 25.4550751,8.94066684 25.2201186,8.90451969 C24.9851622,8.86837255 24.8044292,8.85029924 24.6779142,8.85029924 C24.515252,8.85029924 24.2712624,8.88192752 23.9459381,8.94518503 C23.6206138,9.00844254 23.290776,9.19369388 22.9564149,9.50094463 C22.6220538,9.80819538 22.332881,10.2826196 22.0888877,10.9242314 C21.8448945,11.5658433 21.7228997,12.4559534 21.7228997,13.5945885 L21.7228997,19.8570504 L18.7136648,19.8570504 L18.7136648,6.49170971 Z M40.134547,11.9679751 C40.134547,11.3896207 40.0848455,10.9332698 39.9854408,10.5989087 C39.8860362,10.2645476 39.7007848,9.90759989 39.4296812,9.52805485 C39.1947248,9.20273053 38.8829603,8.95422263 38.4943785,8.78252368 C38.1057966,8.61082474 37.7307756,8.52497655 37.3693041,8.52497655 C36.6825084,8.52497655 36.1493459,8.71474622 35.7698009,9.09429126 C35.3902559,9.4738363 35.1101197,9.92115053 34.9293839,10.4362474 C34.7486482,10.9513442 34.6356901,11.4664333 34.5905061,11.9815302 C34.5453222,12.496627 34.5227306,12.898758 34.5227306,13.1879352 C34.5227306,13.4228916 34.5408039,13.788876 34.576951,14.2858992 C34.6130982,14.7829225 34.7170197,15.2799383 34.8887186,15.7769616 C35.0604176,16.2739849 35.3315171,16.7122624 35.7020253,17.0918075 C36.0725336,17.4713525 36.6011777,17.6611222 37.2879735,17.6611222 C37.6313714,17.6611222 37.9747641,17.5843107 38.318162,17.4306853 C38.6615599,17.2770599 38.968806,17.0511436 39.2399096,16.7529297 C39.5110132,16.4547157 39.7278929,16.097768 39.890555,15.6820758 C40.0532172,15.2663836 40.134547,14.7874411 40.134547,14.2452339 L40.134547,11.9679751 Z M40.3243186,19.8570504 L40.3243186,17.1731382 C40.2339507,17.390021 40.1029193,17.6701572 39.9312204,18.0135551 C39.7595214,18.356953 39.5245685,18.6822724 39.2263545,18.9895232 C38.9281406,19.2967739 38.5486012,19.5633551 38.0877251,19.7892748 C37.626849,20.0151945 37.0620583,20.1281526 36.3933361,20.1281526 C35.6161724,20.1281526 34.9519786,19.9835662 34.4007346,19.694389 C33.8494906,19.4052119 33.384103,19.0392275 33.004558,18.5964249 C32.625013,18.1536224 32.3268035,17.6566066 32.1099206,17.1053626 C31.8930377,16.5541186 31.7258597,16.0164379 31.6083814,15.4923042 C31.4909032,14.9681706 31.4140917,14.4801914 31.3779445,14.0283521 C31.3417974,13.5765128 31.3237241,13.23312 31.3237241,12.9981636 C31.3237241,12.3475149 31.4050539,11.6155462 31.5677161,10.8022354 C31.7303783,9.9889246 32.0105145,9.22080926 32.4081331,8.49786632 C32.8057517,7.77492339 33.3389141,7.16946777 34.0076363,6.68148129 C34.6763585,6.19349481 35.5258037,5.94950523 36.5559974,5.94950523 C37.2247196,5.94950523 37.8798768,6.10312829 38.5214887,6.41037904 C39.1631005,6.71762979 39.7007813,7.35019537 40.134547,8.30809475 L40.134547,1.77453066 L43.143782,1.77453066 L43.143782,19.8570504 L40.3243186,19.8570504 Z M56.4975581,16.2654816 C56.6252703,16.2017471 56.7529825,16.2017471 56.8168386,16.2017471 C56.8806948,16.2017471 56.9445509,16.2654816 56.9445509,16.3292161 C56.9445509,16.5841539 56.4975581,17.0940297 56.4975581,17.0940297 C52.3469105,20.3444875 51.6444932,19.9620807 51.7722054,19.9620807 C51.0697881,19.9620807 50.3035147,19.3884705 50.3035147,18.1137812 C50.3035147,16.0105437 51.8360615,13.4611651 54.0710256,10.0832383 C54.4541623,9.57336256 54.7734429,9.12722129 54.6457307,8.93601789 C54.4541623,8.93601789 54.262594,8.99975236 54.0710256,9.06348683 C50.3673708,10.4656451 47.174565,13.9710408 45.0673132,17.412702 C44.1733275,18.8785948 43.9817592,19.8346118 43.4709102,19.8346118 C43.2793419,19.8346118 43.1516297,19.5159394 43.1516297,19.0060637 C43.1516297,18.5599224 43.2154858,18.0500467 43.4709102,17.412702 C45.3865937,12.632617 47.8131262,8.10746982 50.0480903,8.10746982 C50.3035147,8.10746982 50.3673708,8.29867322 50.3673708,8.48987662 C50.3673708,9.31842469 48.4516873,11.4853966 47.5577017,12.7600859 C49.345673,10.8480519 51.3890687,9.25469023 53.8794573,8.23493875 C56.0505652,7.72506302 56.4337019,8.61734556 56.4337019,9.44589363 C56.4337019,9.76456596 56.3698458,10.0195038 56.3059897,10.0832383 C51.5167809,16.6478884 51.3890687,17.9863122 51.3890687,18.1775156 C51.3890687,19.0697982 51.6444932,19.1335326 51.8999176,19.1335326 C52.4746227,19.1335326 56.4975581,16.3292161 56.4975581,16.2654816 Z M65.4949597,15.3196084 C65.875805,14.7437343 66.6374955,14.039888 66.8913924,14.1678601 C67.081815,14.2958321 66.5740213,15.2556224 66.1297018,15.8314966 C64.9236918,17.2391891 64.1620012,17.8150633 62.6386201,18.7108676 C61.2421874,19.4786998 57.5606831,21.3982805 56.7989926,18.7108676 C56.037302,15.8314966 60.1631258,9.68883856 62.892517,8.40911813 C63.8446302,7.89722996 65.1141144,7.89722996 65.5584339,9.11296437 C67.081815,13.4000278 61.6230327,15.5755525 58.8301674,16.919259 C58.5762705,16.983245 58.3858479,17.047231 58.131951,17.111217 C57.8780542,17.8150633 57.81458,18.4549235 57.9415284,18.9668117 C58.3223737,19.7986299 61.0517648,18.7108676 62.2577748,17.9430353 C63.9715786,16.855273 64.3524239,16.4713568 65.4949597,15.3196084 Z M63.2974456,10.1787008 C61.4601656,11.4555282 59.68624,13.8176587 58.6092138,16.0521066 C61.5235201,14.8391206 65.578207,12.7323555 64.8179532,9.66796988 C64.6278898,9.28492168 63.9309905,9.66796988 63.2974456,10.1787008 Z M66.4846547,17.9254061 C66.2283495,17.477724 66.1001969,17.0939964 66.1001969,16.5823597 C66.1001969,15.431177 67.0613415,14.2799944 68.406944,14.2799944 C68.6632493,14.2799944 69.0477071,14.343949 69.3680887,14.4718581 C70.2010807,13.3846301 71.1622254,12.4892658 73.4689725,8.71594484 C73.5330488,8.65199025 73.0845147,7.75662596 74.4301172,8.01244433 C75.9679486,8.33221729 76.6087117,14.9834949 74.8786514,17.6056332 C75.839796,17.6695877 77.3776275,16.9021326 77.5698564,16.9021326 C77.6339327,16.9021326 77.6339327,16.9021326 77.6339327,16.9660872 C77.6339327,17.2219056 76.3524065,18.3730883 74.814575,18.3730883 C74.6864224,18.3730883 74.4941935,18.3730883 74.3660409,18.3091337 C72.7641331,20.0359077 71.6748358,19.9079985 70.3933096,19.9719531 C68.8554782,20.0359077 67.3176467,19.3324071 66.4846547,17.9254061 Z M70.4660109,14.4553891 C70.3367864,14.5827868 70.2721741,14.7101845 70.1429496,14.7738833 C71.3059702,15.5382693 72.533603,16.4937519 73.6320113,17.0033425 C74.7950318,15.0286786 74.4719706,9.93277178 73.9550725,9.86907294 C72.8566642,11.4615438 71.6936437,13.1814124 70.4660109,14.4553891 Z M69.5135313,15.4575841 C68.6902469,16.2982598 67.803633,17.074268 67.1703373,17.5269395 C67.6769738,18.4322825 69.1968834,19.1436234 70.4634748,19.1436234 C71.6667366,19.1436234 72.4900209,18.5616172 72.9966575,17.7856089 C71.7933957,17.1389354 70.5268043,16.168925 69.5135313,15.4575841 Z M68.8350002,15.0468231 C68.7037952,15.0468231 68.6381928,14.9819662 68.5069878,14.9819662 C67.7853605,14.9819662 66.9325283,15.8899641 66.9325283,16.797962 C66.9325283,16.927676 66.9325283,16.992533 66.9981308,17.122247 C67.4573481,16.5385341 68.1789754,15.7602501 68.8350002,15.0468231 Z M89.299929,5.68434189e-14 C89.7454287,5.68434189e-14 90,0.446297491 90,0.956351767 C90,1.53016283 89.6817859,2.0402171 89.6817859,2.0402171 L85.735931,6.88573272 L86.1814307,6.88573272 C86.4996448,6.88573272 87.0724302,6.88573272 87.0724302,7.26827343 C87.0724302,7.71457092 86.4996448,7.71457092 86.1814307,7.71457092 L85.0995028,7.71457092 C78.607935,16.4492504 78.4170065,18.04317 78.4170065,18.6169811 C78.4170065,19.0632785 78.7352206,19.1270353 78.9261491,19.1270353 C80.1353627,19.2545489 83.5084322,16.3854936 83.5084322,16.25798 C83.6357179,16.1942232 83.7630035,16.1942232 83.8266463,16.1942232 C83.8902892,16.1942232 83.953932,16.25798 83.953932,16.3217368 C83.953932,16.7042775 83.5084322,17.0868182 83.5084322,17.0868182 C79.7535058,20.402171 78.9261491,19.9558735 78.7988634,19.9558735 C77.2714357,19.9558735 77.3987214,18.5532243 77.3987214,18.5532243 C77.3987214,16.0029529 79.8171486,11.7950051 82.872004,7.71457092 L80.1353627,7.71457092 C79.7535058,7.71457092 79.308006,7.71457092 79.308006,7.26827343 C79.308006,6.88573272 79.7535058,6.88573272 80.1353627,6.88573272 L83.5084322,6.88573272 C88.1543582,0.765081413 89.0453577,5.68434189e-14 89.299929,5.68434189e-14 Z" id="kindnest-logo-copy"></path>
        </g>
    </g>
</svg>